<svg width="50" height="50" viewBox="0 0 50 50" fill="none" xmlns="http://www.w3.org/2000/svg">
<path d="M35.475 0H14.525C5.425 0 0 5.425 0 14.525V35.45C0 44.575 5.425 50 14.525 50H35.45C44.55 50 49.975 44.575 49.975 35.475V14.525C50 5.425 44.575 0 35.475 0ZM25 34.7C19.65 34.7 15.3 30.35 15.3 25C15.3 19.65 19.65 15.3 25 15.3C30.35 15.3 34.7 19.65 34.7 25C34.7 30.35 30.35 34.7 25 34.7ZM39.8 12.2C39.675 12.5 39.5 12.775 39.275 13.025C39.025 13.25 38.75 13.425 38.45 13.55C38.15 13.675 37.825 13.75 37.5 13.75C36.825 13.75 36.2 13.5 35.725 13.025C35.5 12.775 35.325 12.5 35.2 12.2C35.075 11.9 35 11.575 35 11.25C35 10.925 35.075 10.6 35.2 10.3C35.325 9.975 35.5 9.725 35.725 9.475C36.3 8.9 37.175 8.625 37.975 8.8C38.15 8.825 38.3 8.875 38.45 8.95C38.6 9 38.75 9.075 38.9 9.175C39.025 9.25 39.15 9.375 39.275 9.475C39.5 9.725 39.675 9.975 39.8 10.3C39.925 10.6 40 10.925 40 11.25C40 11.575 39.925 11.9 39.8 12.2Z" fill="white"/>
</svg>
