<svg width="57" height="57" viewBox="0 0 57 57" fill="none" xmlns="http://www.w3.org/2000/svg">
<path d="M39.7819 16.9031C39.7931 16.9031 39.8081 16.9031 39.8231 16.9031C40.215 16.9031 40.5787 17.025 40.8769 17.235L40.8712 17.2313C41.0887 17.4206 41.235 17.6869 41.2706 17.9869V17.9925C41.3081 18.2213 41.3287 18.4838 41.3287 18.7519C41.3287 18.8738 41.325 18.9938 41.3156 19.1138V19.0969C40.8937 23.5388 39.0637 34.3106 38.1337 39.2831C37.74 41.3888 36.9656 42.0938 36.2156 42.1613C34.5862 42.3131 33.3488 41.085 31.77 40.05C29.2988 38.4281 27.9019 37.4194 25.5038 35.8388C22.7306 34.0144 24.5288 33.0075 26.1075 31.3687C26.5219 30.9375 33.705 24.4031 33.8456 23.8106C33.8531 23.775 33.8569 23.7356 33.8569 23.6944C33.8569 23.5481 33.8025 23.415 33.7144 23.3138C33.6169 23.25 33.495 23.2144 33.3675 23.2144C33.2831 23.2144 33.2025 23.2313 33.1275 23.2594L33.1313 23.2575C32.8838 23.3138 28.9363 25.9225 21.2888 31.0838C20.4544 31.7419 19.4006 32.1581 18.2531 32.2069H18.2419C16.6163 32.01 15.1406 31.6481 13.74 31.1325L13.8788 31.1775C12.12 30.6038 10.7231 30.3019 10.8431 29.3306C10.9069 28.8256 11.6031 28.3087 12.9319 27.78C21.1169 24.2138 26.575 21.8631 29.3063 20.7281C32.3194 19.1288 35.8125 17.8125 39.4856 16.9594L39.78 16.9012L39.7819 16.9031ZM28.1719 0C12.6056 0.0375 0 12.6656 0 28.2375C0 43.8319 12.6413 56.475 28.2375 56.475C43.8338 56.475 56.475 43.8337 56.475 28.2375C56.475 12.6656 43.8694 0.0375 28.3069 0H28.3031C28.2594 0 28.2156 0 28.1719 0Z" fill="white"/>
</svg>
