<svg width="36" height="64" viewBox="0 0 36 64" fill="none" xmlns="http://www.w3.org/2000/svg">
<path d="M34.2601 27.4538C33.9588 27.1301 33.6252 26.8569 33.2786 26.6193L10.0231 1.81434C7.75344 -0.604396 4.07501 -0.605544 1.80424 1.81549C-0.465454 4.23537 -0.465454 8.16021 1.80424 10.5824L21.8333 31.9446L1.70308 53.4193C-0.567693 55.8381 -0.567693 59.7641 1.70308 62.1862C2.83846 63.395 4.32469 64 5.81091 64C7.29714 64 8.78659 63.395 9.91875 62.1839L33.2786 37.27C33.6252 37.0323 33.9577 36.7603 34.2601 36.4354C35.4224 35.1956 35.9799 33.5678 35.954 31.9446C35.9809 30.3203 35.4224 28.6902 34.2601 27.4538Z" fill="#F9A5B1"/>
</svg>
