<svg width="36" height="64" viewBox="0 0 36 64" fill="none" xmlns="http://www.w3.org/2000/svg">
<path d="M1.69487 27.4538C1.9962 27.1301 2.32982 26.8569 2.67636 26.6193L25.9318 1.81434C28.2015 -0.604396 31.88 -0.605544 34.1507 1.81549C36.4204 4.23537 36.4204 8.16021 34.1507 10.5824L14.1217 31.9446L34.2519 53.4193C36.5227 55.8381 36.5227 59.7641 34.2519 62.1862C33.1165 63.395 31.6303 64 30.1441 64C28.6579 64 27.1684 63.395 26.0362 62.1839L2.67636 37.27C2.32982 37.0323 1.99728 36.7603 1.69487 36.4354C0.532581 35.1956 -0.0248871 33.5678 0.00094223 31.9446C-0.0259628 30.3203 0.532581 28.6902 1.69487 27.4538Z" fill="#F9A5B1"/>
</svg>
