<svg width="29" height="29" viewBox="0 0 29 29" fill="none" xmlns="http://www.w3.org/2000/svg">
<ellipse cx="14.5" cy="15.5" rx="10.5" ry="12.5" fill="white"/>
<path d="M24.7577 4.24243C19.1011 -1.41414 9.89891 -1.41414 4.24239 4.24243C-1.41413 9.89775 -1.41413 19.1025 4.24239 24.7579C7.07006 27.5867 10.785 29 14.5 29C18.215 29 21.93 27.5867 24.7576 24.7579C30.4141 19.1025 30.4141 9.89775 24.7577 4.24243ZM19.3357 18.1269C18.6672 18.1269 18.1268 17.5853 18.1268 16.918V12.5828L10.5191 20.1905C10.2833 20.4263 9.97388 20.5448 9.66436 20.5448C9.3549 20.5448 9.04538 20.4263 8.80964 20.1905C8.33698 19.7179 8.33698 18.9538 8.80964 18.4811L16.4174 10.8734H12.0822C11.4137 10.8734 10.8733 10.3318 10.8733 9.66445C10.8733 8.99712 11.4137 8.45554 12.0822 8.45554H19.3357C19.4928 8.45554 19.65 8.48818 19.7975 8.54865C20.0937 8.67077 20.3294 8.90651 20.4515 9.20266C20.5131 9.35016 20.5446 9.50731 20.5446 9.66445V16.918C20.5446 17.5853 20.0042 18.1269 19.3357 18.1269Z" fill="#AC434E"/>
</svg>
